<?xml version="1.0" standalone="no"?>
<!DOCTYPE svg PUBLIC "-//W3C//DTD SVG 20010904//EN"
 "http://www.w3.org/TR/2001/REC-SVG-20010904/DTD/svg10.dtd">
<svg version="1.0" xmlns="http://www.w3.org/2000/svg"
 width="448.000000pt" height="448.000000pt" viewBox="0 0 448.000000 448.000000"
 preserveAspectRatio="xMidYMid meet">
<metadata>
Created by potrace 1.14, written by Peter Selinger 2001-2017
</metadata>
<g transform="translate(0.000000,448.000000) scale(0.100000,-0.100000)"
fill="#000000" stroke="none">
<path d="M2080 4379 c-675 -59 -1301 -443 -1652 -1015 -85 -137 -198 -377
-185 -390 2 -2 16 27 31 65 183 466 575 883 1050 1115 159 78 366 151 404 142
21 -5 24 -4 12 5 -12 8 -8 9 15 5 18 -4 25 -3 17 2 -20 13 221 52 379 62 284
16 578 -19 833 -101 136 -43 311 -115 424 -175 37 -20 58 -28 47 -19 -29 24
-225 118 -331 158 -334 128 -687 177 -1044 146z"/>
<path d="M1575 4245 c-25 -12 -26 -14 -5 -9 28 7 60 23 45 23 -5 0 -23 -6 -40
-14z"/>
<path d="M1510 4220 c-8 -5 -10 -10 -5 -10 6 0 17 5 25 10 8 5 11 10 5 10 -5
0 -17 -5 -25 -10z"/>
<path d="M1450 4195 c-14 -8 -20 -14 -15 -14 6 0 21 6 35 14 14 8 21 14 15 14
-5 0 -21 -6 -35 -14z"/>
<path d="M2120 4168 c-378 -35 -764 -187 -1048 -411 -429 -338 -685 -810 -732
-1352 -14 -158 2 -445 34 -595 13 -63 27 -128 30 -145 3 -16 -3 -5 -14 25 -11
30 -32 109 -46 175 -35 163 -44 482 -20 655 54 386 206 725 460 1027 173 205
391 370 680 512 91 45 166 86 166 91 0 28 -133 -11 -269 -80 -192 -96 -350
-210 -514 -369 -372 -362 -585 -842 -604 -1361 -5 -137 -1 -203 22 -415 4 -36
3 -44 -4 -30 -8 17 -10 16 -10 -11 -1 -45 55 -263 96 -372 19 -51 32 -96 28
-100 -8 -8 -25 19 -19 30 3 4 0 8 -5 8 -6 0 -10 3 -9 8 3 14 -15 67 -26 74 -5
4 -11 19 -12 35 -3 60 -3 60 -15 43 -8 -11 -9 -8 -5 15 5 23 4 27 -4 15 -9
-12 -10 -7 -6 20 4 24 3 29 -2 15 -8 -17 -9 -17 -16 9 -4 15 -4 36 -1 45 3 10
-2 44 -10 77 -14 57 -14 27 1 -46 4 -19 4 -32 1 -29 -12 11 -56 236 -68 348
-16 154 -7 414 20 558 28 149 79 313 139 451 28 61 48 112 45 112 -10 0 -94
-192 -128 -294 -140 -416 -136 -828 12 -1279 48 -147 200 -464 220 -460 6 1
10 -3 9 -10 0 -7 3 -12 7 -12 12 0 29 -34 22 -44 -3 -5 0 -13 6 -17 8 -5 9 -3
4 7 -8 12 -6 12 8 0 19 -15 23 -36 5 -25 -7 4 -8 3 -4 -5 4 -6 11 -9 16 -6 4
3 27 -21 51 -52 203 -269 500 -503 811 -639 195 -85 380 -139 588 -171 156
-23 475 -23 615 0 166 29 448 112 505 148 12 8 11 9 -5 3 -225 -79 -420 -119
-666 -136 -196 -13 -406 -1 -574 33 -101 21 -350 97 -342 105 2 2 52 -12 111
-31 59 -19 169 -47 244 -62 120 -23 164 -26 352 -27 163 0 240 4 320 17 484
82 890 313 1198 682 42 50 101 128 131 175 66 101 157 277 149 286 -4 3 -17
-14 -29 -38 -100 -197 -321 -462 -519 -624 -180 -146 -435 -286 -590 -323
-134 -31 -393 -71 -380 -59 3 3 52 15 110 28 580 122 1030 482 1268 1012 54
122 51 151 -5 37 -43 -89 -155 -264 -217 -339 -692 -835 -1936 -909 -2720
-160 -247 236 -428 553 -507 888 -10 46 -25 95 -33 110 -19 38 -36 165 -43
327 -5 126 -3 154 21 276 24 125 85 332 102 348 4 3 4 -5 0 -19 -3 -14 -18
-68 -32 -120 -40 -150 -55 -271 -54 -446 0 -225 25 -391 89 -574 101 -294 242
-515 461 -723 273 -260 619 -418 999 -456 57 -6 131 -10 165 -10 52 2 46 3
-39 10 -165 15 -304 39 -424 76 -294 88 -567 264 -773 498 -204 231 -339 503
-405 814 -25 115 -27 145 -27 351 l0 225 48 150 c80 251 170 438 299 620 68
97 257 296 362 382 58 47 57 66 -1 27 -24 -17 -33 -20 -24 -8 39 47 246 160
404 221 50 19 97 40 106 47 31 28 220 76 374 96 114 14 370 15 478 0 638 -86
1182 -482 1462 -1064 35 -72 76 -167 90 -210 15 -44 33 -91 41 -105 30 -55 16
58 -21 168 -156 467 -498 851 -959 1076 -393 191 -800 246 -1224 164 -287 -56
-592 -198 -824 -386 -155 -125 -378 -371 -454 -500 -37 -64 -40 -52 -3 15 139
246 386 499 647 661 731 453 1718 382 2378 -171 279 -233 466 -488 599 -815
67 -164 136 -447 136 -560 0 -23 5 -45 10 -48 14 -9 12 51 -5 174 -30 211 -92
406 -187 594 -112 220 -225 373 -404 548 -360 350 -824 559 -1328 599 -146 11
-211 11 -346 -2z m-1832 -2363 c0 -16 -2 -15 -8 5 -4 14 -8 34 -8 45 0 16 2
15 8 -5 4 -14 8 -34 8 -45z m9 -47 c-3 -8 -6 -5 -6 6 -1 11 2 17 5 13 3 -3 4
-12 1 -19z m10 -40 c-3 -8 -6 -5 -6 6 -1 11 2 17 5 13 3 -3 4 -12 1 -19z m22
-63 c0 -5 -4 -3 -9 5 -5 8 -9 22 -9 30 0 16 17 -16 18 -35z m29 -90 c0 -5 -6
4 -13 20 -8 17 -14 37 -14 45 0 8 7 -1 14 -20 7 -19 13 -39 13 -45z m27 -62
c31 -84 123 -262 181 -351 87 -133 138 -196 264 -326 63 -66 102 -110 85 -99
-39 28 -189 181 -252 260 -105 127 -255 401 -297 541 -13 41 1 23 19 -25z m5
-138 c0 -5 -5 -3 -10 5 -5 8 -10 20 -10 25 0 6 5 3 10 -5 5 -8 10 -19 10 -25z
m600 -691 c0 -2 -9 0 -20 6 -11 6 -20 13 -20 16 0 2 9 0 20 -6 11 -6 20 -13
20 -16z m557 -228 c271 -106 572 -155 863 -141 80 4 143 5 140 2 -3 -3 -64
-10 -135 -15 -343 -26 -694 43 -1010 198 -152 74 -195 106 -55 41 58 -27 146
-65 197 -85z m-52 -76 c3 -6 -1 -7 -9 -4 -18 7 -21 14 -7 14 6 0 13 -4 16 -10z
m1092 -56 c-3 -3 -12 -4 -19 -1 -8 3 -5 6 6 6 11 1 17 -2 13 -5z"/>
<path d="M1364 4154 c-18 -14 -18 -14 6 -3 31 14 36 19 24 19 -6 0 -19 -7 -30
-16z"/>
<path d="M1254 4094 c-18 -14 -18 -15 4 -4 12 6 22 13 22 15 0 8 -5 6 -26 -11z"/>
<path d="M1179 4049 l-24 -20 28 17 c15 9 27 18 27 20 0 8 -8 4 -31 -17z"/>
<path d="M2125 3536 c-16 -7 -39 -23 -50 -36 -19 -21 -20 -38 -23 -591 l-2
-569 45 0 46 0 -3 -91 -3 -90 -255 -155 c-140 -85 -299 -180 -352 -212 l-98
-57 0 -318 c0 -265 3 -323 15 -347 32 -62 3 -60 807 -60 806 0 760 -3 793 60
12 22 15 67 15 197 0 181 -5 201 -52 236 -27 20 -37 21 -768 18 l-740 -3 0 85
0 84 168 100 c92 54 254 150 360 213 l192 114 0 112 0 113 43 3 42 3 3 545 c2
608 4 590 -67 637 -38 26 -72 28 -116 9z"/>
<path d="M411 3254 c-12 -20 -20 -39 -17 -41 2 -3 14 13 26 36 25 51 20 54 -9
5z"/>
<path d="M285 2878 c-73 -233 -100 -429 -92 -687 5 -161 23 -328 34 -317 3 2
-1 40 -9 83 -19 117 -16 491 6 618 19 114 56 264 86 349 11 33 18 61 16 64 -3
2 -21 -47 -41 -110z"/>
<path d="M191 2824 c0 -11 3 -14 6 -6 3 7 2 16 -1 19 -3 4 -6 -2 -5 -13z"/>
<path d="M151 2654 c0 -11 3 -14 6 -6 3 7 2 16 -1 19 -3 4 -6 -2 -5 -13z"/>
<path d="M141 2604 c0 -11 3 -14 6 -6 3 7 2 16 -1 19 -3 4 -6 -2 -5 -13z"/>
<path d="M516 2398 c-11 -92 -6 -320 8 -413 37 -238 109 -439 224 -622 54 -89
145 -206 183 -238 13 -11 2 4 -24 34 -114 130 -245 361 -302 536 -64 194 -90
391 -82 608 3 81 4 147 3 147 -2 0 -6 -24 -10 -52z"/>
<path d="M4282 2140 c0 -19 2 -27 5 -17 2 9 2 25 0 35 -3 9 -5 1 -5 -18z"/>
<path d="M4283 1925 c0 -27 2 -38 4 -22 2 15 2 37 0 50 -2 12 -4 0 -4 -28z"/>
<path d="M4273 1825 c0 -22 2 -30 4 -17 2 12 2 30 0 40 -3 9 -5 -1 -4 -23z"/>
<path d="M4262 1755 c0 -16 2 -22 5 -12 2 9 2 23 0 30 -3 6 -5 -1 -5 -18z"/>
<path d="M4252 1700 c0 -14 2 -19 5 -12 2 6 2 18 0 25 -3 6 -5 1 -5 -13z"/>
<path d="M4242 1650 c0 -14 2 -19 5 -12 2 6 2 18 0 25 -3 6 -5 1 -5 -13z"/>
<path d="M4231 1604 c0 -11 3 -14 6 -6 3 7 2 16 -1 19 -3 4 -6 -2 -5 -13z"/>
<path d="M280 1421 c0 -6 4 -13 10 -16 6 -3 7 1 4 9 -7 18 -14 21 -14 7z"/>
<path d="M4136 1333 c-6 -14 -5 -15 5 -6 7 7 10 15 7 18 -3 3 -9 -2 -12 -12z"/>
<path d="M4107 1277 c-9 -17 -30 -57 -47 -87 -17 -30 -24 -46 -15 -35 24 30
87 146 83 151 -3 2 -12 -11 -21 -29z"/>
<path d="M4005 1104 c-9 -15 -12 -23 -6 -20 11 7 35 46 28 46 -3 0 -12 -12
-22 -26z"/>
<path d="M1000 1057 c37 -41 153 -137 165 -137 4 0 -17 19 -47 41 -29 23 -75
62 -103 88 -42 38 -44 40 -15 8z"/>
<path d="M3669 703 l-34 -38 38 34 c20 19 37 36 37 38 0 8 -8 0 -41 -34z"/>
<path d="M3589 633 l-34 -38 38 34 c20 19 37 36 37 38 0 8 -8 0 -41 -34z"/>
<path d="M3529 583 c-13 -16 -12 -17 4 -4 16 13 21 21 13 21 -2 0 -10 -8 -17
-17z"/>
<path d="M3475 544 c-18 -16 -22 -22 -9 -15 18 9 53 42 43 41 -2 -1 -17 -12
-34 -26z"/>
<path d="M1310 386 c0 -2 7 -7 16 -10 8 -3 12 -2 9 4 -6 10 -25 14 -25 6z"/>
</g>
</svg>
