<svg id="visual" viewBox="0 0 900 600" width="900" height="600" xmlns="http://www.w3.org/2000/svg" xmlns:xlink="http://www.w3.org/1999/xlink" version="1.1"><path d="M0 344L129 344L129 306L257 306L257 340L386 340L386 383L514 383L514 284L643 284L643 336L771 336L771 252L900 252L900 264L900 601L900 601L771 601L771 601L643 601L643 601L514 601L514 601L386 601L386 601L257 601L257 601L129 601L129 601L0 601Z" fill="#5b5cb3"></path><path d="M0 388L129 388L129 355L257 355L257 408L386 408L386 353L514 353L514 450L643 450L643 419L771 419L771 387L900 387L900 450L900 601L900 601L771 601L771 601L643 601L643 601L514 601L514 601L386 601L386 601L257 601L257 601L129 601L129 601L0 601Z" fill="#00aeee"></path><path d="M0 492L129 492L129 533L257 533L257 511L386 511L386 497L514 497L514 446L643 446L643 474L771 474L771 492L900 492L900 468L900 601L900 601L771 601L771 601L643 601L643 601L514 601L514 601L386 601L386 601L257 601L257 601L129 601L129 601L0 601Z" fill="#5ff7f7"></path></svg>