<svg id="visual" viewBox="0 0 900 600" width="900" height="600" xmlns="http://www.w3.org/2000/svg" xmlns:xlink="http://www.w3.org/1999/xlink" version="1.1"><path d="M649 600L644.8 585.7C640.7 571.3 632.3 542.7 641.7 514.2C651 485.7 678 457.3 693.2 428.8C708.3 400.3 711.7 371.7 695.5 343C679.3 314.3 643.7 285.7 632 257C620.3 228.3 632.7 199.7 632 171.2C631.3 142.7 617.7 114.3 610.5 85.8C603.3 57.3 602.7 28.7 602.3 14.3L602 0L900 0L900 14.3C900 28.7 900 57.3 900 85.8C900 114.3 900 142.7 900 171.2C900 199.7 900 228.3 900 257C900 285.7 900 314.3 900 343C900 371.7 900 400.3 900 428.8C900 457.3 900 485.7 900 514.2C900 542.7 900 571.3 900 585.7L900 600Z" fill="#5ff7f7"></path><path d="M675 600L673.2 585.7C671.3 571.3 667.7 542.7 665.8 514.2C664 485.7 664 457.3 673.8 428.8C683.7 400.3 703.3 371.7 713.2 343C723 314.3 723 285.7 716.8 257C710.7 228.3 698.3 199.7 690 171.2C681.7 142.7 677.3 114.3 675 85.8C672.7 57.3 672.3 28.7 672.2 14.3L672 0L900 0L900 14.3C900 28.7 900 57.3 900 85.8C900 114.3 900 142.7 900 171.2C900 199.7 900 228.3 900 257C900 285.7 900 314.3 900 343C900 371.7 900 400.3 900 428.8C900 457.3 900 485.7 900 514.2C900 542.7 900 571.3 900 585.7L900 600Z" fill="#00d4f8"></path><path d="M754 600L751 585.7C748 571.3 742 542.7 745.3 514.2C748.7 485.7 761.3 457.3 769.8 428.8C778.3 400.3 782.7 371.7 782.8 343C783 314.3 779 285.7 767.2 257C755.3 228.3 735.7 199.7 735 171.2C734.3 142.7 752.7 114.3 761.7 85.8C770.7 57.3 770.3 28.7 770.2 14.3L770 0L900 0L900 14.3C900 28.7 900 57.3 900 85.8C900 114.3 900 142.7 900 171.2C900 199.7 900 228.3 900 257C900 285.7 900 314.3 900 343C900 371.7 900 400.3 900 428.8C900 457.3 900 485.7 900 514.2C900 542.7 900 571.3 900 585.7L900 600Z" fill="#00aeee"></path><path d="M791 600L791.2 585.7C791.3 571.3 791.7 542.7 792 514.2C792.3 485.7 792.7 457.3 790.3 428.8C788 400.3 783 371.7 782.3 343C781.7 314.3 785.3 285.7 792.5 257C799.7 228.3 810.3 199.7 815.2 171.2C820 142.7 819 114.3 813.8 85.8C808.7 57.3 799.3 28.7 794.7 14.3L790 0L900 0L900 14.3C900 28.7 900 57.3 900 85.8C900 114.3 900 142.7 900 171.2C900 199.7 900 228.3 900 257C900 285.7 900 314.3 900 343C900 371.7 900 400.3 900 428.8C900 457.3 900 485.7 900 514.2C900 542.7 900 571.3 900 585.7L900 600Z" fill="#3786d7"></path><path d="M837 600L838.3 585.7C839.7 571.3 842.3 542.7 848 514.2C853.7 485.7 862.3 457.3 860.3 428.8C858.3 400.3 845.7 371.7 843 343C840.3 314.3 847.7 285.7 850 257C852.3 228.3 849.7 199.7 850.7 171.2C851.7 142.7 856.3 114.3 850.3 85.8C844.3 57.3 827.7 28.7 819.3 14.3L811 0L900 0L900 14.3C900 28.7 900 57.3 900 85.8C900 114.3 900 142.7 900 171.2C900 199.7 900 228.3 900 257C900 285.7 900 314.3 900 343C900 371.7 900 400.3 900 428.8C900 457.3 900 485.7 900 514.2C900 542.7 900 571.3 900 585.7L900 600Z" fill="#5b5cb3"></path></svg>