<svg id="visual" viewBox="0 0 900 600" width="900" height="600" xmlns="http://www.w3.org/2000/svg" xmlns:xlink="http://www.w3.org/1999/xlink" version="1.1"><g stroke-width="1" stroke-linejoin="bevel"><path d="M466 268L469 200L406 217Z" fill="#189ee6" stroke="#189ee6"></path><path d="M406 217L361 289L466 268Z" fill="#15dbf8" stroke="#15dbf8"></path><path d="M406 217L339 270L361 289Z" fill="#00aeee" stroke="#00aeee"></path><path d="M516 403L567 271L466 268Z" fill="#2e8edd" stroke="#2e8edd"></path><path d="M466 268L567 271L469 200Z" fill="#2e8edd" stroke="#2e8edd"></path><path d="M462 62L388 111L469 200Z" fill="#407ed1" stroke="#407ed1"></path><path d="M469 200L388 111L406 217Z" fill="#00bdf4" stroke="#00bdf4"></path><path d="M406 217L284 172L339 270Z" fill="#407ed1" stroke="#407ed1"></path><path d="M388 111L310 138L406 217Z" fill="#5ff7f7" stroke="#5ff7f7"></path><path d="M310 138L284 172L406 217Z" fill="#00bdf4" stroke="#00bdf4"></path><path d="M634 89L462 62L469 200Z" fill="#15dbf8" stroke="#15dbf8"></path><path d="M388 111L303 0L310 138Z" fill="#15dbf8" stroke="#15dbf8"></path><path d="M438 428L516 403L466 268Z" fill="#4f6dc3" stroke="#4f6dc3"></path><path d="M361 289L438 428L466 268Z" fill="#4f6dc3" stroke="#4f6dc3"></path><path d="M263 397L438 428L361 289Z" fill="#407ed1" stroke="#407ed1"></path><path d="M668 170L633 176L732 321Z" fill="#189ee6" stroke="#189ee6"></path><path d="M567 271L633 176L469 200Z" fill="#15dbf8" stroke="#15dbf8"></path><path d="M201 98L236 223L284 172Z" fill="#5ff7f7" stroke="#5ff7f7"></path><path d="M284 172L236 223L339 270Z" fill="#4f6dc3" stroke="#4f6dc3"></path><path d="M339 270L263 397L361 289Z" fill="#3ee9f8" stroke="#3ee9f8"></path><path d="M732 321L633 176L567 271Z" fill="#5ff7f7" stroke="#5ff7f7"></path><path d="M605 0L467 0L462 62Z" fill="#00cdf7" stroke="#00cdf7"></path><path d="M634 89L469 200L633 176Z" fill="#407ed1" stroke="#407ed1"></path><path d="M462 62L402 0L388 111Z" fill="#189ee6" stroke="#189ee6"></path><path d="M467 0L402 0L462 62Z" fill="#00bdf4" stroke="#00bdf4"></path><path d="M310 138L201 98L284 172Z" fill="#4f6dc3" stroke="#4f6dc3"></path><path d="M668 170L634 89L633 176Z" fill="#5b5cb3" stroke="#5b5cb3"></path><path d="M236 223L263 397L339 270Z" fill="#5b5cb3" stroke="#5b5cb3"></path><path d="M438 428L492 505L516 403Z" fill="#00bdf4" stroke="#00bdf4"></path><path d="M273 462L420 481L438 428Z" fill="#189ee6" stroke="#189ee6"></path><path d="M492 505L622 418L516 403Z" fill="#4f6dc3" stroke="#4f6dc3"></path><path d="M516 403L622 418L567 271Z" fill="#5ff7f7" stroke="#5ff7f7"></path><path d="M622 418L665 387L567 271Z" fill="#2e8edd" stroke="#2e8edd"></path><path d="M402 0L303 0L388 111Z" fill="#189ee6" stroke="#189ee6"></path><path d="M171 326L232 406L263 397Z" fill="#00aeee" stroke="#00aeee"></path><path d="M263 397L273 462L438 428Z" fill="#4f6dc3" stroke="#4f6dc3"></path><path d="M420 481L492 505L438 428Z" fill="#3ee9f8" stroke="#3ee9f8"></path><path d="M303 0L201 98L310 138Z" fill="#00cdf7" stroke="#00cdf7"></path><path d="M236 223L171 326L263 397Z" fill="#189ee6" stroke="#189ee6"></path><path d="M702 0L605 0L634 89Z" fill="#189ee6" stroke="#189ee6"></path><path d="M634 89L605 0L462 62Z" fill="#00aeee" stroke="#00aeee"></path><path d="M232 406L273 462L263 397Z" fill="#189ee6" stroke="#189ee6"></path><path d="M420 481L430 600L492 505Z" fill="#15dbf8" stroke="#15dbf8"></path><path d="M89 314L171 326L62 234Z" fill="#00cdf7" stroke="#00cdf7"></path><path d="M166 527L316 600L273 462Z" fill="#189ee6" stroke="#189ee6"></path><path d="M665 387L732 321L567 271Z" fill="#189ee6" stroke="#189ee6"></path><path d="M668 170L731 111L634 89Z" fill="#00bdf4" stroke="#00bdf4"></path><path d="M303 0L238 0L201 98Z" fill="#189ee6" stroke="#189ee6"></path><path d="M761 138L731 111L668 170Z" fill="#00cdf7" stroke="#00cdf7"></path><path d="M828 226L761 138L668 170Z" fill="#5ff7f7" stroke="#5ff7f7"></path><path d="M665 387L773 414L732 321Z" fill="#00aeee" stroke="#00aeee"></path><path d="M622 418L701 476L665 387Z" fill="#5ff7f7" stroke="#5ff7f7"></path><path d="M492 505L631 521L622 418Z" fill="#5b5cb3" stroke="#5b5cb3"></path><path d="M791 0L702 0L731 111Z" fill="#4f6dc3" stroke="#4f6dc3"></path><path d="M731 111L702 0L634 89Z" fill="#4f6dc3" stroke="#4f6dc3"></path><path d="M76 0L108 131L201 98Z" fill="#3ee9f8" stroke="#3ee9f8"></path><path d="M201 98L108 131L236 223Z" fill="#407ed1" stroke="#407ed1"></path><path d="M631 521L701 476L622 418Z" fill="#00aeee" stroke="#00aeee"></path><path d="M62 234L171 326L236 223Z" fill="#2e8edd" stroke="#2e8edd"></path><path d="M128 494L166 527L232 406Z" fill="#00aeee" stroke="#00aeee"></path><path d="M316 600L430 600L420 481Z" fill="#407ed1" stroke="#407ed1"></path><path d="M492 505L589 600L631 521Z" fill="#00cdf7" stroke="#00cdf7"></path><path d="M316 600L420 481L273 462Z" fill="#00bdf4" stroke="#00bdf4"></path><path d="M430 600L523 600L492 505Z" fill="#3ee9f8" stroke="#3ee9f8"></path><path d="M631 521L672 600L701 476Z" fill="#189ee6" stroke="#189ee6"></path><path d="M701 476L773 414L665 387Z" fill="#2e8edd" stroke="#2e8edd"></path><path d="M732 321L828 226L668 170Z" fill="#5b5cb3" stroke="#5b5cb3"></path><path d="M773 414L820 272L732 321Z" fill="#00bdf4" stroke="#00bdf4"></path><path d="M761 138L791 0L731 111Z" fill="#00bdf4" stroke="#00bdf4"></path><path d="M108 131L62 234L236 223Z" fill="#5b5cb3" stroke="#5b5cb3"></path><path d="M820 272L828 226L732 321Z" fill="#00bdf4" stroke="#00bdf4"></path><path d="M166 527L273 462L232 406Z" fill="#3ee9f8" stroke="#3ee9f8"></path><path d="M523 600L589 600L492 505Z" fill="#2e8edd" stroke="#2e8edd"></path><path d="M701 476L790 523L773 414Z" fill="#5b5cb3" stroke="#5b5cb3"></path><path d="M128 494L232 406L66 397Z" fill="#00aeee" stroke="#00aeee"></path><path d="M66 397L232 406L171 326Z" fill="#2e8edd" stroke="#2e8edd"></path><path d="M66 397L171 326L89 314Z" fill="#3ee9f8" stroke="#3ee9f8"></path><path d="M0 338L66 397L89 314Z" fill="#00bdf4" stroke="#00bdf4"></path><path d="M900 118L791 0L761 138Z" fill="#15dbf8" stroke="#15dbf8"></path><path d="M589 600L672 600L631 521Z" fill="#4f6dc3" stroke="#4f6dc3"></path><path d="M238 0L76 0L201 98Z" fill="#3ee9f8" stroke="#3ee9f8"></path><path d="M108 131L0 164L62 234Z" fill="#2e8edd" stroke="#2e8edd"></path><path d="M0 67L0 164L108 131Z" fill="#15dbf8" stroke="#15dbf8"></path><path d="M62 234L0 338L89 314Z" fill="#15dbf8" stroke="#15dbf8"></path><path d="M763 600L790 523L701 476Z" fill="#189ee6" stroke="#189ee6"></path><path d="M900 360L900 317L820 272Z" fill="#2e8edd" stroke="#2e8edd"></path><path d="M900 317L900 180L828 226Z" fill="#2e8edd" stroke="#2e8edd"></path><path d="M0 164L0 338L62 234Z" fill="#407ed1" stroke="#407ed1"></path><path d="M66 397L0 476L128 494Z" fill="#5ff7f7" stroke="#5ff7f7"></path><path d="M61 600L166 527L128 494Z" fill="#2e8edd" stroke="#2e8edd"></path><path d="M61 600L170 600L166 527Z" fill="#15dbf8" stroke="#15dbf8"></path><path d="M166 527L170 600L316 600Z" fill="#3ee9f8" stroke="#3ee9f8"></path><path d="M900 317L828 226L820 272Z" fill="#00bdf4" stroke="#00bdf4"></path><path d="M828 226L900 180L761 138Z" fill="#00aeee" stroke="#00aeee"></path><path d="M900 360L820 272L773 414Z" fill="#4f6dc3" stroke="#4f6dc3"></path><path d="M900 180L900 118L761 138Z" fill="#3ee9f8" stroke="#3ee9f8"></path><path d="M900 477L900 360L773 414Z" fill="#5b5cb3" stroke="#5b5cb3"></path><path d="M76 0L0 67L108 131Z" fill="#5ff7f7" stroke="#5ff7f7"></path><path d="M0 338L0 412L66 397Z" fill="#5b5cb3" stroke="#5b5cb3"></path><path d="M672 600L763 600L701 476Z" fill="#189ee6" stroke="#189ee6"></path><path d="M790 523L900 477L773 414Z" fill="#15dbf8" stroke="#15dbf8"></path><path d="M76 0L0 0L0 67Z" fill="#5b5cb3" stroke="#5b5cb3"></path><path d="M0 412L0 476L66 397Z" fill="#407ed1" stroke="#407ed1"></path><path d="M900 118L900 0L791 0Z" fill="#00bdf4" stroke="#00bdf4"></path><path d="M900 600L900 477L790 523Z" fill="#407ed1" stroke="#407ed1"></path><path d="M0 476L61 600L128 494Z" fill="#2e8edd" stroke="#2e8edd"></path><path d="M0 476L0 600L61 600Z" fill="#4f6dc3" stroke="#4f6dc3"></path><path d="M763 600L900 600L790 523Z" fill="#5b5cb3" stroke="#5b5cb3"></path></g></svg>