<?xml version="1.0" standalone="no"?>
<!DOCTYPE svg PUBLIC "-//W3C//DTD SVG 20010904//EN"
 "http://www.w3.org/TR/2001/REC-SVG-20010904/DTD/svg10.dtd">
<svg version="1.0" xmlns="http://www.w3.org/2000/svg"
 width="448.000000pt" height="448.000000pt" viewBox="0 0 448.000000 448.000000"
 preserveAspectRatio="xMidYMid meet">
<metadata>
Created by potrace 1.14, written by Peter Selinger 2001-2017
</metadata>
<g transform="translate(0.000000,448.000000) scale(0.100000,-0.100000)"
fill="#000000" stroke="none">
<path d="M2005 4469 c-58 -7 -135 -19 -215 -34 -8 -2 -35 -8 -60 -14 -25 -7
-54 -14 -65 -16 -121 -28 -349 -118 -484 -192 -233 -126 -481 -324 -626 -498
-22 -27 -44 -53 -50 -59 -32 -34 -85 -106 -85 -114 0 -6 -4 -12 -8 -14 -8 -2
-63 -86 -109 -163 -22 -37 -135 -264 -137 -277 -3 -12 -17 -50 -33 -88 -3 -8
-7 -17 -8 -20 -1 -3 -11 -36 -23 -74 -38 -119 -74 -289 -90 -426 -14 -127 -7
-468 12 -565 2 -11 7 -40 11 -65 38 -248 171 -593 313 -810 55 -85 165 -230
211 -280 23 -25 52 -56 65 -70 45 -49 162 -157 201 -186 22 -16 46 -35 53 -42
8 -6 35 -26 60 -44 26 -17 49 -35 50 -40 2 -4 7 -8 12 -8 5 0 44 -22 88 -50
123 -76 395 -198 472 -212 3 -1 20 -7 37 -15 18 -7 33 -11 33 -8 0 3 8 1 17
-4 10 -5 32 -12 48 -15 17 -3 76 -14 132 -25 163 -32 197 -35 418 -35 259 0
446 27 663 96 37 12 69 22 72 23 5 2 53 21 80 32 8 3 21 7 28 9 13 2 240 115
277 137 77 46 161 101 163 109 2 4 8 8 14 8 8 0 80 53 114 85 6 6 32 28 58 50
84 70 227 220 275 287 8 12 22 30 30 39 35 39 101 135 101 147 0 6 4 12 8 14
11 4 94 151 136 240 59 125 119 291 141 383 2 11 9 38 15 60 5 22 13 56 16 75
3 19 9 53 14 75 31 145 35 543 6 690 -2 11 -7 40 -11 65 -38 248 -171 593
-313 810 -54 83 -165 230 -208 277 -105 112 -135 142 -195 195 -111 98 -136
118 -148 118 -6 0 -11 3 -11 8 0 4 -18 18 -40 32 -22 14 -40 28 -40 32 0 5 -5
8 -11 8 -6 0 -30 14 -54 30 -99 68 -428 219 -500 230 -3 1 -20 7 -40 16 -19 8
-35 12 -35 9 0 -3 -8 -1 -17 4 -10 5 -31 12 -48 15 -16 3 -76 14 -131 25 -56
11 -122 23 -145 26 -69 10 -427 13 -504 4z"/>
</g>
</svg>
